<svg xmlns="http://www.w3.org/2000/svg" width="1200" height="630" viewBox="0 0 1200 630">
  <rect width="1200" height="630" fill="#f4ede0"/>
  <g stroke="#1a1a1a" stroke-width="1.5">
    <line x1="60" y1="60" x2="1140" y2="60"/>
    <line x1="60" y1="64" x2="1140" y2="64"/>
    <line x1="60" y1="566" x2="1140" y2="566"/>
    <line x1="60" y1="570" x2="1140" y2="570"/>
  </g>
  <g font-family="monospace" fill="#3a3a3a" font-size="13" letter-spacing="3">
    <text x="80" y="100">VOL. I · ISSUE 0001 · RESEARCH TERMINAL</text>
    <text x="1120" y="100" text-anchor="end" fill="#a44a1a">EVIDENCE OVER THESES</text>
  </g>
  <line x1="80" y1="116" x2="1120" y2="116" stroke="#1a1a1a" stroke-width="0.5"/>
  <g font-family="serif">
    <text x="80" y="240" font-size="116" font-weight="700" fill="#1a1a1a" letter-spacing="-2" font-style="italic">Yield</text>
    <text x="80" y="350" font-size="116" font-weight="700" fill="#a44a1a" letter-spacing="-2" font-style="italic">Terminal.</text>
    <text x="80" y="408" font-size="28" fill="#3a3a3a" font-style="italic">A composer for verifiable yield strategies on Solana.</text>
  </g>
  <g transform="translate(80,460)" font-family="monospace" font-size="14" fill="#1a1a1a">
    <rect x="0" y="0" width="180" height="60" fill="none" stroke="#1a1a1a"/>
    <text x="14" y="22" fill="#3a3a3a" font-size="11" letter-spacing="2">COVERED CALLS</text>
    <text x="14" y="46" font-size="22" font-weight="700">+12.4%</text>
    <rect x="194" y="0" width="180" height="60" fill="none" stroke="#1a1a1a"/>
    <text x="208" y="22" fill="#3a3a3a" font-size="11" letter-spacing="2">DELTA NEUTRAL</text>
    <text x="208" y="46" font-size="22" font-weight="700">+8.2%</text>
    <rect x="388" y="0" width="180" height="60" fill="none" stroke="#1a1a1a"/>
    <text x="402" y="22" fill="#3a3a3a" font-size="11" letter-spacing="2">LST LOOPING</text>
    <text x="402" y="46" font-size="22" font-weight="700">+15.7%</text>
  </g>
  <g transform="translate(820,140)">
    <rect x="0" y="0" width="280" height="280" fill="#ebe2cf" stroke="#1a1a1a" stroke-width="2"/>
    <text x="20" y="36" font-family="monospace" font-size="11" fill="#3a3a3a" letter-spacing="3">BACKTEST · 30D</text>
    <g stroke="#a44a1a" stroke-width="2.5" fill="none">
      <polyline points="20,220 50,210 80,200 110,180 140,170 170,150 200,130 230,110 260,80"/>
    </g>
    <g stroke="#1a1a1a" stroke-width="1" fill="none" stroke-dasharray="3 4" opacity="0.5">
      <polyline points="20,220 50,215 80,212 110,205 140,200 170,195 200,188 230,180 260,170"/>
    </g>
    <line x1="20" y1="240" x2="260" y2="240" stroke="#1a1a1a" stroke-width="0.7"/>
    <line x1="20" y1="60" x2="20" y2="240" stroke="#1a1a1a" stroke-width="0.7"/>
    <text x="20" y="265" font-family="monospace" font-size="10" fill="#3a3a3a">DAY 0</text>
    <text x="240" y="265" font-family="monospace" font-size="10" fill="#3a3a3a">D30</text>
  </g>
  <line x1="80" y1="540" x2="1120" y2="540" stroke="#1a1a1a" stroke-width="0.5"/>
  <g font-family="monospace" font-size="12" fill="#3a3a3a" letter-spacing="3">
    <text x="80" y="555">COMPOSE · BACKTEST · PUBLISH</text>
    <text x="1120" y="555" text-anchor="end" fill="#a44a1a">yieldterminal.vercel.app</text>
  </g>
</svg>
